<svg width="10" height="11" viewBox="0 0 10 11" fill="none" xmlns="http://www.w3.org/2000/svg">
<path d="M5.81606 5.54546L8.86325 2.11736C9.00787 1.95495 9.08922 1.73457 9.0894 1.50468C9.08958 1.2748 9.00858 1.05425 8.86421 0.891549C8.71985 0.728852 8.52395 0.637336 8.31961 0.637133C8.11527 0.63693 7.91922 0.728057 7.7746 0.890467L4.72741 4.31856L1.68021 0.890467C1.53559 0.72777 1.33945 0.636368 1.13492 0.636368C0.9304 0.636368 0.734254 0.72777 0.589635 0.890467C0.445016 1.05316 0.36377 1.27383 0.36377 1.50392C0.36377 1.734 0.445016 1.95467 0.589635 2.11736L3.63683 5.54546L0.589635 8.97355C0.445016 9.13625 0.36377 9.35691 0.36377 9.587C0.36377 9.81709 0.445016 10.0378 0.589635 10.2005C0.734254 10.3631 0.9304 10.4545 1.13492 10.4545C1.33945 10.4545 1.53559 10.3631 1.68021 10.2005L4.72741 6.77236L7.7746 10.2005C7.91922 10.3631 8.11537 10.4545 8.31989 10.4545C8.52441 10.4545 8.72056 10.3631 8.86518 10.2005C9.0098 10.0378 9.09104 9.81709 9.09104 9.587C9.09104 9.35691 9.0098 9.13625 8.86518 8.97355L5.81606 5.54546Z" fill="white"/>
</svg>
