<svg width="13" height="14" viewBox="0 0 13 14" fill="none" xmlns="http://www.w3.org/2000/svg">
<path d="M7.74287 2.67926C7.74287 2.67926 7.8056 3.75377 8.75351 4.70119C9.70143 5.64916 10.7753 5.71243 10.7753 5.71243L11.2809 5.20681C11.6831 4.80459 11.9091 4.25906 11.9091 3.69023C11.9091 3.1214 11.6831 2.57587 11.2809 2.17364C10.8787 1.77142 10.3332 1.54546 9.76443 1.54546C9.19563 1.54546 8.65012 1.77142 8.24792 2.17364L7.74233 2.67926L6.45517 3.96649M10.7753 5.71188L7.9065 8.58196L6.21519 10.2723L6.12792 10.3601C5.81268 10.6748 5.65505 10.8324 5.48161 10.9677C5.27694 11.1275 5.05547 11.2644 4.82112 11.3762C4.6226 11.4706 4.41152 11.5409 3.98883 11.6817L2.19935 12.2784M2.19935 12.2784L1.76193 12.4246C1.65997 12.4587 1.55049 12.4638 1.44581 12.4392C1.34112 12.4146 1.24537 12.3613 1.16933 12.2852C1.09329 12.2092 1.03996 12.1134 1.01535 12.0087C0.990733 11.904 0.995805 11.7945 1.03 11.6926L1.17616 11.2551M2.19935 12.2784L1.17616 11.2551M1.17616 11.2551L1.77284 9.46557C1.91356 9.04285 1.98391 8.83177 2.07827 8.63323C2.19008 8.39869 2.32697 8.17725 2.48678 7.97271C2.62204 7.79926 2.77966 7.64163 3.09436 7.32691L4.54624 5.87551" stroke="white" stroke-width="1.5" stroke-linecap="round"/>
</svg>
